<svg xmlns="http://www.w3.org/2000/svg" width="635.186" height="141.24" viewBox="0 0 635.186 141.24">
  <path id="Path_1" data-name="Path 1" d="M104.766-67.148H100.02q.439-6.855.439-10.986,0-12.393-5.142-17.271a18.087,18.087,0,0,0-12.964-4.878q-10.459,0-21.709,8.481T41.309-65.347a89.192,89.192,0,0,0-8.086,36.958q0,18.369,7.515,28.169T59.59,9.58Q74.971,9.58,87.8-8.877a3.565,3.565,0,0,1,2.725-1.846,2.711,2.711,0,0,1,1.934.747,2.3,2.3,0,0,1,.791,1.714q0,2.373-5.845,9.316A47.716,47.716,0,0,1,72.686,12.612,37.722,37.722,0,0,1,55.2,17.227a36.338,36.338,0,0,1-19.248-5.405A36.291,36.291,0,0,1,22.148-3.6q-4.922-10.02-4.922-23.818,0-19.248,10.063-38.32T52.471-95.186Q67.588-105.557,82-105.557a46.878,46.878,0,0,1,10.283,1.143q2.2.527,18.105,6.064A112.336,112.336,0,0,0,104.766-67.148Zm47.725-6.768a17.889,17.889,0,0,1,14.326,6.855q5.713,6.855,5.713,19.072,0,19.512-13.711,35.024t-29,15.513q-9.4,0-15.161-6.152T108.9-20.391a59.771,59.771,0,0,1,10.547-34.1Q132.715-73.916,152.49-73.916Zm-7.471,6.592q-7.471,0-14.458,10.679t-6.987,29.487q0,11.426,4.307,18.018a9.666,9.666,0,0,0,8.438,4.834q7.383,0,13.447-9.141Q157.5-25.312,157.5-42.891q0-13.184-3.56-18.809T145.02-67.324Zm95.8-8.086,5.8-1.23L240.028-54.4q-3.954,13.271-7.469,30.586-1.934,9.4-1.934,12.129t2.2,2.725q1.406,0,4.482-1.846A57.635,57.635,0,0,0,247.764-18.9l2.813,3.428q-10.02,9.141-12.832,11.074a48.078,48.078,0,0,1-10.723,5.713,18.753,18.753,0,0,1-6.5,1.23,4.9,4.9,0,0,1-3.428-1.055,3.98,3.98,0,0,1-1.143-3.076,13.123,13.123,0,0,1,.7-3.6l3.516-11.953A74.546,74.546,0,0,1,202.148-1.582q-6.416,4.043-11.777,4.043a9.216,9.216,0,0,1-7.822-3.6q-3.691-4.834-3.691-12.656,0-9.316,4.966-20.742a76.687,76.687,0,0,1,13.315-20.742,56.6,56.6,0,0,1,17.578-13.711q7.119-3.34,18.281-3.34a47.449,47.449,0,0,1,5.713.352Zm-10.9,13.447a41.268,41.268,0,0,0-8-.967,22.588,22.588,0,0,0-13.8,4.351q-5.889,4.351-10.942,15.645a54.808,54.808,0,0,0-5.054,22.544q0,5.977,2.021,8.613a6.339,6.339,0,0,0,5.273,2.637q6.064,0,13.008-6.548t10.2-18.853Zm74.795,42.891,1.846,5.1Q285.645,2.461,271.23,2.461q-7.646,0-11.118-5.449t-3.472-13.8q0-13.887,7.383-28.564t17.93-22.5a30.708,30.708,0,0,1,18.633-6.064q6.5,0,9.844,2.461a7.246,7.246,0,0,1,3.34,5.977,5.925,5.925,0,0,1-1.758,4.438,6.754,6.754,0,0,1-4.922,1.714q-3.076,0-7.91-2.812-5.01-2.988-8.35-2.988-4.307,0-8.569,3.9t-8.13,15.138a68.894,68.894,0,0,0-3.867,22.554q0,8.337,3.252,12.9a7.606,7.606,0,0,0,6.68,3.51Q290.479-7.119,304.717-19.072Zm83.5.439,2.285,3.252A77.7,77.7,0,0,1,373.887-1.143q-5.8,3.6-9.58,3.6A5.963,5.963,0,0,1,359.341,0q-1.89-2.461-1.89-7.646a52.914,52.914,0,0,1,1.45-10.239q1.45-6.724,8.218-28.872,2.988-10.9,2.988-12.744,0-2.812-3-2.812-3.7,0-9.256,3.682A55.377,55.377,0,0,0,344.1-45.659q-3.792,5.045-6.084,14.963L331.084,0h-13.1q4.219-15.364,6.5-25.109l12.92-56.365q3.516-15.621,9.272-24.05a42.337,42.337,0,0,1,15.029-13.459,38.212,38.212,0,0,1,18.325-5.03,8.917,8.917,0,0,1,5.977,1.872,5.942,5.942,0,0,1,2.2,4.724,5.429,5.429,0,0,1-2.156,4.233,8.761,8.761,0,0,1-5.853,1.827,41.235,41.235,0,0,1-5.456-.466,85.559,85.559,0,0,0-10.473-1.116,8,8,0,0,0-6.6,3.267q-2.552,3.267-5.28,15.366l-9.8,43.382A113.243,113.243,0,0,1,365.382-69.44Q372.6-73.916,377-73.916a7.085,7.085,0,0,1,5.368,2.019A7.8,7.8,0,0,1,384.3-66.27a25.919,25.919,0,0,1-.706,5.977q-1.145,5.186-5.378,18.809-5.729,18.809-6.744,23.379a38.17,38.17,0,0,0-1.014,8.174,3.742,3.742,0,0,0,.483,2.109,1.643,1.643,0,0,0,1.45.7q2.109,0,7.91-5.01Q383.555-14.854,388.213-18.633Zm1.934,20.127L391.2-3.252Q400.43-5.01,403.55-7.295t5.625-8.13q2.5-5.845,6.812-24.126,5.713-24.17,10.371-34.8,7.119-16,17.71-23.73t21.4-7.734a19.092,19.092,0,0,1,11.689,3.516q4.746,3.516,4.746,7.295a4.989,4.989,0,0,1-1.449,3.6,4.661,4.661,0,0,1-3.468,1.494q-2.634,0-6.409-3.428a34.544,34.544,0,0,0-6.541-4.834,10.225,10.225,0,0,0-4.521-1.143,9.972,9.972,0,0,0-5,1.406q-3.425,1.934-7.331,7.339t-8.121,16.04q-2.731,7.207-6.963,23.73-6.61,26.279-10.047,34.893a35.473,35.473,0,0,1-5.977,10.2q12.568-2.725,20.039-2.725a60.415,60.415,0,0,1,8.613.571q3.955.571,13.8,2.856,8.525,2.021,11.953,2.021a8.222,8.222,0,0,0,5.669-2.074,6.2,6.2,0,0,0,2.329-4.722,13.45,13.45,0,0,0-1.23-4.677,12.875,12.875,0,0,1-1.143-4.5,4.991,4.991,0,0,1,1.406-3.752,5.069,5.069,0,0,1,3.691-1.368,5.545,5.545,0,0,1,4.482,2.329,10,10,0,0,1,1.846,6.372q0,7.646-6.328,13.184T464.063,3.34q-5.361,0-13.8-.791Q421.787,0,413,0A155.126,155.126,0,0,0,390.146,1.494Zm148.447-113.2a5.993,5.993,0,0,1,4.482,1.8,6.332,6.332,0,0,1,1.758,4.614,9.812,9.812,0,0,1-2.681,6.812,8,8,0,0,1-6.021,2.944,5.817,5.817,0,0,1-4.395-1.846,6.72,6.72,0,0,1-1.758-4.834,9.569,9.569,0,0,1,2.549-6.724A7.972,7.972,0,0,1,538.594-111.709ZM504.053-53.525l-3.867-2.988q8.778-9.668,16.021-13.755t12.334-4.087a6.605,6.605,0,0,1,4.3,1.23,4.1,4.1,0,0,1,1.492,3.34q0,2.549-5.7,21.621-9.29,31.2-9.29,37.617a3.386,3.386,0,0,0,.615,2.065,1.692,1.692,0,0,0,1.318.835q2.813,0,14.414-10.9l3.428,3.34Q527.08-3.867,521.543-.7T512.49,2.461A6.344,6.344,0,0,1,507.612.527a7.56,7.56,0,0,1-1.8-5.361q0-10.986,13.184-53.7a12.548,12.548,0,0,0,.615-3.6q0-1.758-1.582-1.758a7.762,7.762,0,0,0-4,1.406Q511.787-61.084,504.053-53.525Zm78.926-20.391q7.822,0,12.085,3.032t4.263,6.987a5.588,5.588,0,0,1-1.8,4.131,6,6,0,0,1-4.351,1.758,5.48,5.48,0,0,1-2.9-.747,16.334,16.334,0,0,1-3.516-3.735q-4.307-5.713-8.525-5.713a8.763,8.763,0,0,0-6.372,2.765,9.346,9.346,0,0,0-2.769,6.89,14.946,14.946,0,0,0,1.758,6.979q1.758,3.38,8.877,10.929,9.756,10.359,9.756,19.663t-7.91,16.284q-7.91,6.978-20.391,6.978-10.459,0-15.557-4.263a13.183,13.183,0,0,1-5.1-10.5,7.08,7.08,0,0,1,1.934-5.1,6.312,6.312,0,0,1,4.746-2.021,6,6,0,0,1,4.219,1.626,5.049,5.049,0,0,1,1.758,3.823q0,.879-.117,2.285-.059,1.143-.059,1.934a6.164,6.164,0,0,0,2.453,4.922,9.652,9.652,0,0,0,6.481,2.021,20.011,20.011,0,0,0,8.32-1.624,12.406,12.406,0,0,0,5.605-4.916,12.456,12.456,0,0,0,2.015-6.54,12.227,12.227,0,0,0-1.89-6.321q-1.89-3.161-8.481-10.446-9.141-10.183-9.141-19.575,0-8.6,6.943-15.055T582.979-73.916Zm43.594-13.535L640.526-92.8l-6.314,24.6h18.2l-1.406,6.24H632.792l-7.667,29.454q-3.65,13.263-3.65,18.446a4.842,4.842,0,0,0,1.011,3.428,3.654,3.654,0,0,0,2.769,1.055q2.725,0,8.35-3.252a109.5,109.5,0,0,0,14.063-9.756l3.34,4.043Q631.758-4.043,625.254-.791T614.795,2.461A6.221,6.221,0,0,1,609.653.088q-1.89-2.373-1.89-7.734,0-6.328,3.34-19.336l8.947-34.98H605.812l1.582-6.24h14.253Z" transform="translate(-17.227 124.014)" fill="#fff"/>
</svg>
